<?xml version="1.0" encoding="iso-8859-1"?>
<!-- Generator: Adobe Illustrator 16.0.0, SVG Export Plug-In . SVG Version: 6.00 Build 0)  -->
<!DOCTYPE svg PUBLIC "-//W3C//DTD SVG 1.1//EN" "http://www.w3.org/Graphics/SVG/1.1/DTD/svg11.dtd">
<svg xmlns="http://www.w3.org/2000/svg" xmlns:xlink="http://www.w3.org/1999/xlink" version="1.1" id="Capa_1" x="0px" y="0px" width="512px" height="512px" viewBox="0 0 48.433 48.433" style="enable-background:new 0 0 48.433 48.433;" xml:space="preserve">
<g>
	<g id="Layer_1_copy_6_">
		<path d="M47.21,31.855c-0.075-0.041-0.151-0.062-0.229-0.062c-0.08,0-0.156,0.021-0.23,0.062s-0.135,0.098-0.176,0.174    c-0.043,0.074-0.062,0.152-0.062,0.232s0.021,0.159,0.062,0.232c0.043,0.074,0.101,0.134,0.174,0.175    c0.074,0.041,0.152,0.062,0.234,0.062c0.08,0,0.158-0.021,0.231-0.062s0.132-0.101,0.173-0.175    c0.042-0.073,0.062-0.151,0.062-0.232s-0.021-0.158-0.062-0.232C47.344,31.951,47.285,31.896,47.21,31.855z M47.099,32.523    l-0.044-0.08c-0.035-0.062-0.064-0.103-0.086-0.119c-0.014-0.01-0.036-0.018-0.064-0.018h-0.047v0.215h-0.082l0,0v-0.505h0.174    c0.06,0,0.103,0.005,0.127,0.015c0.027,0.01,0.05,0.024,0.064,0.049c0.016,0.023,0.023,0.048,0.023,0.074    c0,0.037-0.014,0.068-0.039,0.097c-0.026,0.026-0.062,0.043-0.105,0.046c0.018,0.006,0.032,0.016,0.043,0.027    c0.021,0.02,0.045,0.053,0.075,0.099l0.062,0.099h-0.101V32.523z M47.051,32.216c-0.018,0.017-0.049,0.021-0.096,0.021h-0.1v-0.15    h0.094c0.039,0,0.064,0.003,0.08,0.009s0.025,0.017,0.035,0.024c0.008,0.014,0.012,0.025,0.012,0.041    C47.076,32.185,47.068,32.201,47.051,32.216z M46.59,27.124c-0.062,0.032-0.111,0.082-0.146,0.145    c-0.035,0.063-0.053,0.13-0.053,0.195c0,0.067,0.018,0.133,0.051,0.194c0.037,0.062,0.084,0.109,0.146,0.146    c0.062,0.034,0.126,0.054,0.193,0.054s0.133-0.02,0.193-0.054c0.062-0.035,0.11-0.083,0.146-0.146    c0.035-0.062,0.051-0.127,0.051-0.194c0-0.065-0.018-0.132-0.053-0.195c-0.035-0.062-0.084-0.11-0.146-0.145    s-0.125-0.052-0.191-0.052C46.717,27.072,46.652,27.09,46.59,27.124z M46.943,27.281c0.017,0.022,0.023,0.047,0.023,0.074    c0,0.037-0.014,0.068-0.04,0.096c-0.026,0.029-0.062,0.041-0.104,0.046c0.02,0.008,0.033,0.017,0.043,0.026    c0.021,0.021,0.045,0.051,0.074,0.099l0.062,0.1h-0.1l-0.045-0.078c-0.035-0.063-0.063-0.103-0.084-0.118    c-0.017-0.013-0.037-0.019-0.066-0.019H46.66v0.214h-0.084v-0.504h0.175c0.059,0,0.103,0.005,0.128,0.016    C46.904,27.242,46.926,27.259,46.943,27.281z M46.751,27.285c0.04,0,0.065,0.005,0.082,0.01c0.015,0.007,0.026,0.015,0.034,0.025    c0.009,0.014,0.013,0.024,0.013,0.041c0,0.022-0.009,0.041-0.024,0.056c-0.019,0.015-0.05,0.021-0.097,0.021H46.66v-0.152H46.751    L46.751,27.285z M36.041,25.213c0.263,0.001,0.291,0.027,0.336,0.036c0.029,0.259-0.163,1.477-1.092,1.477    c-0.48,0-0.604-0.364-0.604-0.582C34.681,25.721,34.91,25.213,36.041,25.213z M11.023,25.213c0.264,0.001,0.292,0.027,0.336,0.036    c0.03,0.259-0.163,1.477-1.092,1.477c-0.479,0-0.604-0.364-0.604-0.582C9.663,25.721,9.892,25.213,11.023,25.213z M33.935,9.717    c-3.741,0.001-7.151,1.419-9.722,3.748c-2.572-2.326-5.98-3.745-9.718-3.745c-0.031,0-0.063,0-0.093,0    C6.444,9.772,0,16.246,0,24.216c0,8.001,6.494,14.495,14.495,14.495c3.737,0,7.145-1.417,9.717-3.745    c-0.537-0.485-1.023-1.022-1.482-1.584h2.993c-0.451,0.553-0.943,1.071-1.472,1.553h-0.003h0.001    c-0.012,0.013-0.025,0.021-0.037,0.032c2.573,2.33,5.985,3.75,9.729,3.749c8.006-0.003,14.493-6.495,14.491-14.5    c0-0.003,0-0.005,0-0.007C48.432,16.204,41.941,9.715,33.935,9.717z M22.895,14.962h2.755c0.406,0.492,0.783,1.01,1.125,1.552    h-4.915C22.177,15.995,22.525,15.463,22.895,14.962z M21.004,18.037h6.607c0.235,0.502,0.443,1.021,0.625,1.553h-8.015    C20.301,19.44,20.581,18.836,21.004,18.037z M5.917,27.908l0.879-5.542l-1.983,5.542H3.75l-0.138-5.542l-0.939,5.542H1.184    l1.234-7.35H4.67l0.079,4.51l1.521-4.51h2.443l-1.217,7.35H5.917z M11.182,27.9l0.051-0.591c-0.024,0.003-0.494,0.709-1.583,0.709    c-0.57,0-1.49-0.311-1.49-1.663c0-1.719,1.402-2.289,2.737-2.289c0.21,0,0.663,0.038,0.663,0.038s0.051-0.105,0.051-0.389    c0-0.467-0.42-0.531-0.995-0.531c-1.013,0-1.682,0.271-1.682,0.271l0.224-1.33c0,0,0.812-0.34,1.869-0.34    c0.547,0,2.12,0.058,2.12,1.861l-0.606,4.25h-1.359V27.9z M16.926,26.025c0,2.051-1.987,1.963-2.334,1.963    c-1.295,0-1.695-0.179-1.732-0.189l0.206-1.35c0.002-0.012,0.65,0.235,1.371,0.235c0.416,0,0.956-0.041,0.956-0.538    c0-0.744-1.932-0.566-1.932-2.333c0-1.559,1.158-2.015,2.3-2.015c0.882,0,1.424,0.121,1.424,0.121l-0.195,1.362    c0,0-0.837-0.069-1.054-0.069c-0.549,0-0.848,0.12-0.848,0.504C15.087,24.487,16.926,24.108,16.926,26.025z M19.312,26.562    c0.137,0,0.292-0.047,0.398-0.047l-0.193,1.311c-0.155,0.043-0.594,0.199-1.157,0.203c-0.719,0.006-1.23-0.396-1.23-1.308    c0-0.612,0.877-5.655,0.911-5.688h1.543l-0.157,0.902h0.77L20,23.388h-0.817l-0.434,2.677    C18.716,26.277,18.775,26.562,19.312,26.562z M22.706,21.764c1.694,0,2.201,1.24,2.201,2.257c0,0.407-0.204,1.407-0.204,1.407    h-3.136c0,0-0.29,1.235,1.367,1.235c0.777,0,1.639-0.38,1.639-0.38l-0.272,1.488c0,0-0.498,0.254-1.63,0.254    c-1.227,0-2.666-0.519-2.666-2.699C20.006,23.437,21.154,21.765,22.706,21.764z M26.794,31.888h-5.143    c-0.313-0.5-0.605-1.013-0.856-1.552h6.843C27.387,30.872,27.105,31.39,26.794,31.888z M26.449,27.919h-1.584l0.963-5.982h1.437    l-0.138,0.867c0,0,0.512-0.943,1.203-0.943c0.201,0,0.298,0.02,0.298,0.02c-0.205,0.418-0.386,0.801-0.574,1.79    C26.982,23.29,26.9,25.363,26.449,27.919z M32.484,27.826c0,0-0.83,0.212-1.35,0.212c-1.842,0-2.777-1.271-2.777-3.196    c0-2.903,1.733-4.449,3.514-4.449c0.805,0,1.738,0.378,1.738,0.378l-0.252,1.635c0,0-0.631-0.441-1.416-0.441    c-1.05,0-1.992,1.002-1.992,2.823c0,0.897,0.439,1.733,1.535,1.733c0.521,0,1.276-0.379,1.276-0.379L32.484,27.826z M36.199,27.9    l0.052-0.591c-0.025,0.003-0.495,0.709-1.583,0.709c-0.57,0-1.49-0.311-1.49-1.663c0-1.719,1.402-2.289,2.736-2.289    c0.21,0,0.664,0.038,0.664,0.038S36.63,24,36.63,23.716c0-0.467-0.42-0.531-0.996-0.531c-1.013,0-1.681,0.271-1.681,0.271    l0.224-1.33c0,0,0.812-0.34,1.87-0.34c0.546,0,2.12,0.058,2.119,1.861l-0.606,4.25C37.559,27.9,36.199,27.9,36.199,27.9z     M39.406,27.919h-1.584l0.963-5.982h1.438l-0.138,0.867c0,0,0.513-0.943,1.204-0.943c0.201,0,0.297,0.02,0.297,0.02    c-0.204,0.418-0.387,0.801-0.574,1.79C39.939,23.29,39.857,25.363,39.406,27.919z M47.188,27.23    c0.043,0.075,0.062,0.153,0.062,0.234s-0.02,0.157-0.062,0.232c-0.041,0.074-0.099,0.131-0.173,0.175    c-0.073,0.041-0.151,0.062-0.233,0.062c-0.08,0-0.157-0.021-0.231-0.062c-0.074-0.044-0.132-0.101-0.173-0.175    c-0.042-0.075-0.062-0.151-0.062-0.232c0-0.082,0.021-0.16,0.062-0.234s0.102-0.134,0.175-0.174    c0.076-0.041,0.151-0.062,0.229-0.062c0.08,0,0.156,0.021,0.23,0.062C47.088,27.097,47.146,27.154,47.188,27.23z M44.936,22.632    l0.334-2.065l1.547-0.003l-1.18,7.338h-1.501l0.067-0.551c0,0-0.512,0.646-1.438,0.646c-1.283,0-1.912-1.239-1.912-2.505    c0-1.958,1.178-3.665,2.592-3.665C44.355,21.829,44.936,22.632,44.936,22.632z M23.422,24.204h-1.713    c0-0.101,0.162-1.058,1.003-1.058C23.583,23.146,23.422,24.126,23.422,24.204z M43.712,23.314c0.555,0,0.84,0.381,0.84,1.279    c0,0.813-0.403,1.904-1.239,1.904c-0.556,0-0.816-0.468-0.816-1.198C42.496,24.102,43.033,23.314,43.712,23.314z" fill="#999999"/>
	</g>
</g>
<g>
</g>
<g>
</g>
<g>
</g>
<g>
</g>
<g>
</g>
<g>
</g>
<g>
</g>
<g>
</g>
<g>
</g>
<g>
</g>
<g>
</g>
<g>
</g>
<g>
</g>
<g>
</g>
<g>
</g>
</svg>
