<?xml version="1.0" encoding="iso-8859-1"?>
<!-- Generator: Adobe Illustrator 16.0.0, SVG Export Plug-In . SVG Version: 6.00 Build 0)  -->
<!DOCTYPE svg PUBLIC "-//W3C//DTD SVG 1.1//EN" "http://www.w3.org/Graphics/SVG/1.1/DTD/svg11.dtd">
<svg xmlns="http://www.w3.org/2000/svg" xmlns:xlink="http://www.w3.org/1999/xlink" version="1.1" id="Capa_1" x="0px" y="0px" width="512px" height="512px" viewBox="0 0 35.812 35.812" style="enable-background:new 0 0 35.812 35.812;" xml:space="preserve">
<g>
	<g id="Layer_1_copy_10_">
		<path d="M31.023,24.802c0-0.812-0.384-1.455-1.242-1.455c-0.763,0-1.324,0.558-1.324,1.474c0,1.002,0.602,1.448,1.445,1.448    c0.438,0,0.812-0.12,1.114-0.315l-0.086-0.605c-0.31,0.178-0.61,0.291-0.922,0.291c-0.377,0-0.642-0.172-0.688-0.611h1.688    C31.017,24.982,31.023,24.888,31.023,24.802z M29.316,24.552c0.028-0.431,0.2-0.644,0.44-0.644c0.265,0,0.412,0.22,0.44,0.644    H29.316z M27.478,24.683l0.919,1.442l-0.9,0.128l-0.814-1.347v1.306H25.82v-3.998l0.861-0.138v2.479l0.75-1.15h0.932    L27.478,24.683z M28.351,9.753l2.968-0.531v11.39h-2.968V9.753z M35.652,20.611h-2.97V9.753l2.97-0.531V20.611z M35.812,25.347    c0,0.591-0.407,0.912-1.151,0.912c-0.447,0-0.865-0.127-1.158-0.28l0.104-0.66c0.332,0.207,0.739,0.334,1.062,0.334    c0.238,0,0.354-0.08,0.354-0.213c0-0.144-0.08-0.205-0.478-0.304c-0.703-0.183-1.002-0.371-1.002-0.897    c0-0.521,0.389-0.871,1.075-0.871c0.379,0,0.746,0.074,1.037,0.207l-0.106,0.658c-0.306-0.166-0.654-0.265-0.925-0.265    c-0.204,0-0.297,0.073-0.297,0.185c0,0.114,0.08,0.178,0.476,0.287C35.549,24.636,35.812,24.826,35.812,25.347z M21.31,20.611    h-2.991v-4.688c0-2.447,1.393-3.677,4.135-3.766c0,0,0.494-0.019,0.787,0.043v2.435c-1.738,0.06-1.931,0.688-1.931,2.152V20.611z     M12.711,20.611H9.648V9.827l3.063-0.605v5.949c1.15-1.391,1.625-2.734,1.691-2.9h3.502c-0.1,0.319-0.725,2.244-2.15,4.05    c0,0,1.588,2.783,1.951,4.291h-3.668c0,0-0.439-2.004-1.326-3.333V20.611z M33.154,23.349l0.145,0.882    c-0.42,0.028-0.732,0.194-0.947,0.424v1.559h-0.865v-2.807h0.758l0.092,0.555C32.508,23.64,32.742,23.379,33.154,23.349z     M24.148,10.02c0-0.808,0.653-1.463,1.461-1.463c0.809,0,1.463,0.655,1.463,1.463c0,0.808-0.654,1.462-1.463,1.462    C24.802,11.482,24.148,10.827,24.148,10.02z M27.094,20.611h-2.967v-8.331h2.967V20.611z M24.008,23.349    c-0.771,0-1.346,0.565-1.346,1.466s0.565,1.454,1.34,1.454c0.779,0,1.357-0.562,1.357-1.461    C25.359,23.91,24.787,23.349,24.008,23.349z M24.008,25.572c-0.326,0-0.51-0.312-0.51-0.763c0-0.459,0.178-0.75,0.51-0.75    s0.518,0.304,0.518,0.757C24.525,25.269,24.34,25.572,24.008,25.572z M13.367,24.802c0-0.812-0.383-1.455-1.242-1.455    c-0.762,0-1.324,0.558-1.324,1.474c0,1.002,0.602,1.448,1.443,1.448c0.441,0,0.814-0.12,1.117-0.315l-0.086-0.605    c-0.309,0.178-0.613,0.291-0.922,0.291c-0.379,0-0.641-0.172-0.688-0.611h1.686C13.361,24.982,13.367,24.888,13.367,24.802z     M11.66,24.552c0.029-0.431,0.201-0.644,0.441-0.644c0.264,0,0.412,0.22,0.441,0.644H11.66z M8.902,17.062    c0,1.827-1.465,3.67-4.736,3.67c-1.516,0-2.809-0.148-3.957-0.451v-2.66c0.766,0.313,2.029,0.646,3.33,0.646    c1.186,0,1.893-0.394,1.893-1.061c0-0.808-0.863-0.857-1.188-0.877C0.412,16.068,0,13.802,0,12.84    c0-1.669,1.186-3.618,4.531-3.618c1.939,0,2.986,0.303,3.887,0.618l0.047,0.014v2.549v0.034l-0.033-0.009    c-0.363-0.154-0.789-0.304-0.789-0.304c-0.762-0.229-1.83-0.472-2.654-0.472c-0.469,0-1.719,0-1.719,0.943    c0,0.782,0.867,0.838,1.242,0.863C7.263,13.643,8.902,14.99,8.902,17.062z M15.502,23.406h0.838l-0.998,2.862    c-0.252,0.734-0.596,0.986-1.209,0.986c-0.172,0-0.246-0.019-0.326-0.035l-0.109-0.692c0.092,0.028,0.178,0.047,0.346,0.047    c0.193,0,0.365-0.074,0.457-0.271l0.035-0.086l-1.02-2.744l0.928-0.108l0.543,1.771L15.502,23.406z M6.052,23.349    c-0.773,0-1.346,0.565-1.346,1.466s0.568,1.454,1.34,1.454c0.779,0,1.359-0.562,1.359-1.461    C7.405,23.91,6.832,23.349,6.052,23.349z M6.052,25.572c-0.326,0-0.51-0.312-0.51-0.763c0-0.459,0.178-0.75,0.51-0.75    c0.334,0,0.516,0.304,0.516,0.757C6.568,25.269,6.386,25.572,6.052,25.572z M4.267,24.218v1.994H3.396v-1.759    c0-0.2-0.074-0.338-0.275-0.338c-0.154,0-0.303,0.099-0.457,0.246v1.853H1.799v-1.761c0-0.2-0.074-0.336-0.275-0.336    c-0.16,0-0.305,0.097-0.459,0.246v1.851H0.2v-2.808h0.762l0.064,0.383c0.252-0.258,0.51-0.439,0.871-0.439    c0.383,0,0.596,0.188,0.697,0.439c0.252-0.252,0.527-0.439,0.877-0.439C3.992,23.349,4.267,23.676,4.267,24.218z M10.361,24.218    v1.994H9.49v-1.759c0-0.2-0.08-0.338-0.287-0.338c-0.166,0-0.32,0.099-0.475,0.252v1.845H7.863v-2.806h0.762l0.063,0.383    c0.252-0.244,0.521-0.439,0.877-0.439C10.086,23.349,10.361,23.676,10.361,24.218z M18.297,23.349    c-0.332,0-0.572,0.183-0.75,0.365v-1.638l-0.865,0.138v3.832c0.326,0.127,0.752,0.2,1.203,0.2c0.865,0,1.421-0.469,1.421-1.512    C19.306,23.783,18.871,23.349,18.297,23.349z M17.861,25.554c-0.131,0-0.199-0.019-0.314-0.054v-1.11    c0.143-0.159,0.293-0.269,0.477-0.269c0.246,0,0.418,0.199,0.418,0.67C18.441,25.347,18.199,25.554,17.861,25.554z M20.99,23.349    c-0.773,0-1.349,0.565-1.349,1.466s0.568,1.454,1.343,1.454c0.778,0,1.356-0.562,1.356-1.461    C22.342,23.91,21.767,23.349,20.99,23.349z M20.99,25.572c-0.328,0-0.51-0.312-0.51-0.763c0-0.459,0.178-0.75,0.51-0.75    s0.516,0.304,0.516,0.757C21.506,25.269,21.322,25.572,20.99,25.572z" fill="#999999"/>
	</g>
</g>
<g>
</g>
<g>
</g>
<g>
</g>
<g>
</g>
<g>
</g>
<g>
</g>
<g>
</g>
<g>
</g>
<g>
</g>
<g>
</g>
<g>
</g>
<g>
</g>
<g>
</g>
<g>
</g>
<g>
</g>
</svg>
