<?xml version="1.0" encoding="utf-8"?>
<!-- Generator: Adobe Illustrator 19.0.0, SVG Export Plug-In . SVG Version: 6.00 Build 0)  -->
<svg version="1.1" id="US_UK_Download_on_the" xmlns="http://www.w3.org/2000/svg" xmlns:xlink="http://www.w3.org/1999/xlink"
	 x="0px" y="0px" viewBox="-238 377 135 38.8" style="enable-background:new -238 377 135 38.8;" xml:space="preserve">
<style type="text/css">
	.st0{fill:#FFFFFF;}
</style>
<g>
	<path d="M-102.9,411.9c0,2.1-1.7,3.9-3.9,3.9h-127.3c-2.1,0-3.9-1.7-3.9-3.9v-31c0-2.1,1.7-3.9,3.9-3.9h127.3
		c2.2,0,3.9,1.7,3.9,3.9V411.9L-102.9,411.9z"/>
	<g>
		<g>
			<path class="st0" d="M-208.3,396.2c0-3.3,2.7-4.9,2.8-4.9c-1.5-2.2-3.9-2.5-4.7-2.6c-2-0.2-3.9,1.2-4.9,1.2s-2.6-1.2-4.3-1.1
				c-2.2,0-4.2,1.3-5.3,3.2c-2.3,4-0.6,9.8,1.6,13c1.1,1.6,2.4,3.3,4.1,3.3c1.6-0.1,2.3-1.1,4.3-1.1s2.5,1.1,4.3,1
				c1.8,0,2.9-1.6,3.9-3.2c1.3-1.8,1.8-3.6,1.8-3.7C-204.9,401.4-208.3,400.1-208.3,396.2z"/>
			<path class="st0" d="M-211.6,386.6c0.9-1.1,1.5-2.6,1.3-4.1c-1.3,0.1-2.9,0.9-3.8,2c-0.8,1-1.5,2.5-1.4,4
				C-214,388.5-212.5,387.7-211.6,386.6z"/>
		</g>
	</g>
	<g>
		<path class="st0" d="M-184.5,408.1h-2.3l-1.3-4h-4.4l-1.2,4h-2.2l4.3-13.5h2.7L-184.5,408.1z M-188.4,402.4l-1.1-3.5
			c-0.1-0.4-0.3-1.2-0.7-2.5l0,0c-0.1,0.6-0.3,1.4-0.6,2.5l-1.1,3.5H-188.4z"/>
		<path class="st0" d="M-173.3,403.1c0,1.7-0.4,3-1.3,3.9c-0.8,0.9-1.8,1.3-3,1.3c-1.3,0-2.2-0.5-2.8-1.4l0,0v5.1h-2.2v-10.5
			c0-1,0-2.1-0.1-3.2h1.9l0.1,1.5l0,0c0.7-1.2,1.8-1.7,3.3-1.7c1.1,0,2.1,0.5,2.9,1.4C-173.8,400.4-173.3,401.6-173.3,403.1z
			 M-175.5,403.2c0-0.9-0.2-1.7-0.6-2.3c-0.5-0.6-1.1-1-1.9-1c-0.5,0-1,0.2-1.5,0.5c-0.4,0.4-0.7,0.8-0.9,1.4
			c-0.1,0.3-0.1,0.5-0.1,0.7v1.6c0,0.7,0.2,1.3,0.7,1.8c0.4,0.5,1,0.7,1.7,0.7c0.8,0,1.4-0.3,1.9-0.9
			C-175.8,405-175.5,404.2-175.5,403.2z"/>
		<path class="st0" d="M-162.1,403.1c0,1.7-0.4,3-1.3,3.9c-0.8,0.9-1.8,1.3-3,1.3c-1.3,0-2.2-0.5-2.8-1.4l0,0v5.1h-2.2v-10.5
			c0-1,0-2.1-0.1-3.2h1.9l0.1,1.5l0,0c0.7-1.2,1.8-1.7,3.3-1.7c1.1,0,2.1,0.5,2.9,1.4C-162.5,400.4-162.1,401.6-162.1,403.1z
			 M-164.3,403.2c0-0.9-0.2-1.7-0.6-2.3c-0.5-0.6-1.1-1-1.9-1c-0.5,0-1,0.2-1.5,0.5c-0.4,0.4-0.7,0.8-0.9,1.4
			c-0.1,0.3-0.1,0.5-0.1,0.7v1.6c0,0.7,0.2,1.3,0.6,1.8s1,0.7,1.7,0.7c0.8,0,1.4-0.3,1.9-0.9C-164.5,405-164.3,404.2-164.3,403.2z"
			/>
		<path class="st0" d="M-149.6,404.3c0,1.1-0.4,2.1-1.2,2.8c-0.9,0.8-2.1,1.2-3.7,1.2c-1.5,0-2.6-0.3-3.5-0.8l0.5-1.8
			c0.9,0.6,2,0.9,3.1,0.9c0.8,0,1.4-0.2,1.9-0.6s0.7-0.9,0.7-1.5c0-0.5-0.2-1-0.6-1.4s-1-0.7-1.9-1c-2.4-0.9-3.5-2.2-3.5-3.9
			c0-1.1,0.4-2,1.2-2.7c0.8-0.7,1.9-1.1,3.3-1.1c1.2,0,2.2,0.2,3.1,0.6l-0.5,1.8c-0.8-0.4-1.6-0.6-2.6-0.6c-0.8,0-1.4,0.2-1.8,0.6
			c-0.4,0.3-0.5,0.7-0.5,1.2s0.2,1,0.6,1.3s1,0.7,2,1c1.2,0.5,2,1,2.6,1.6C-149.8,402.6-149.6,403.4-149.6,404.3z"/>
		<path class="st0" d="M-142.4,400h-2.4v4.7c0,1.2,0.4,1.8,1.3,1.8c0.4,0,0.7,0,1-0.1l0.1,1.6c-0.4,0.2-1,0.2-1.7,0.2
			c-0.9,0-1.5-0.3-2-0.8s-0.7-1.4-0.7-2.6v-4.9h-1.4v-1.6h1.4v-1.8l2.1-0.6v2.4h2.4C-142.4,398.3-142.4,400-142.4,400z"/>
		<path class="st0" d="M-131.8,403.1c0,1.5-0.4,2.7-1.3,3.7s-2.1,1.5-3.6,1.5c-1.4,0-2.6-0.5-3.4-1.4s-1.3-2.1-1.3-3.6
			s0.4-2.7,1.3-3.7s2.1-1.4,3.5-1.4s2.6,0.5,3.4,1.4C-132.1,400.5-131.8,401.7-131.8,403.1z M-133.9,403.2c0-0.9-0.2-1.7-0.6-2.3
			c-0.5-0.8-1.1-1.2-1.9-1.2c-0.9,0-1.5,0.4-2,1.2c-0.4,0.6-0.6,1.4-0.6,2.4c0,0.9,0.2,1.7,0.6,2.3c0.5,0.8,1.1,1.2,2,1.2
			c0.8,0,1.5-0.4,1.9-1.2C-134.1,404.9-133.9,404.1-133.9,403.2z"/>
		<path class="st0" d="M-124.6,400.2c-0.2,0-0.4-0.1-0.7-0.1c-0.8,0-1.3,0.3-1.8,0.9c-0.4,0.5-0.5,1.1-0.5,1.9v5.1h-2.2v-6.7
			c0-1.1,0-2.1-0.1-3.1h1.9l0.1,1.9h0.1c0.2-0.6,0.6-1.2,1.1-1.5c0.5-0.3,1-0.5,1.6-0.5c0.2,0,0.4,0,0.5,0
			C-124.6,398.2-124.6,400.2-124.6,400.2z"/>
		<path class="st0" d="M-114.9,402.7c0,0.4,0,0.7-0.1,1h-6.5c0,1,0.3,1.7,0.9,2.2c0.5,0.5,1.3,0.7,2.1,0.7c1,0,1.8-0.2,2.6-0.5
			l0.3,1.5c-0.9,0.4-2,0.6-3.3,0.6c-1.5,0-2.7-0.4-3.6-1.3s-1.3-2.1-1.3-3.6s0.4-2.7,1.2-3.7c0.8-1,2-1.6,3.4-1.6s2.5,0.5,3.2,1.6
			C-115.3,400.5-114.9,401.5-114.9,402.7z M-117,402.2c0-0.6-0.1-1.2-0.4-1.7c-0.4-0.6-0.9-0.9-1.7-0.9c-0.7,0-1.3,0.3-1.7,0.9
			c-0.4,0.5-0.6,1-0.6,1.7H-117L-117,402.2z"/>
	</g>
	<g>
		<g>
			<path class="st0" d="M-189.1,386.3c0,1.2-0.4,2.1-1.1,2.7c-0.7,0.6-1.6,0.8-2.8,0.8c-0.6,0-1.1,0-1.6-0.1v-6.5
				c0.6-0.1,1.2-0.1,1.8-0.1c1.2,0,2,0.3,2.6,0.8C-189.4,384.4-189.1,385.2-189.1,386.3z M-190.3,386.3c0-0.8-0.2-1.4-0.6-1.8
				c-0.4-0.4-1-0.6-1.8-0.6c-0.3,0-0.6,0-0.9,0.1v5c0.1,0,0.4,0,0.7,0c0.8,0,1.4-0.2,1.9-0.7C-190.5,387.8-190.3,387.2-190.3,386.3z
				"/>
			<path class="st0" d="M-183.3,387.3c0,0.7-0.2,1.3-0.6,1.8s-1,0.7-1.8,0.7c-0.7,0-1.3-0.2-1.7-0.7c-0.4-0.5-0.6-1.1-0.6-1.8
				s0.2-1.3,0.6-1.8s1-0.7,1.7-0.7s1.3,0.2,1.7,0.7C-183.4,386-183.3,386.6-183.3,387.3z M-184.3,387.3c0-0.4-0.1-0.8-0.3-1.1
				c-0.2-0.4-0.5-0.6-1-0.6c-0.4,0-0.8,0.2-1,0.6c-0.2,0.3-0.3,0.7-0.3,1.2c0,0.4,0.1,0.8,0.3,1.1c0.2,0.4,0.6,0.6,1,0.6
				s0.7-0.2,1-0.6C-184.4,388.2-184.3,387.8-184.3,387.3z"/>
			<path class="st0" d="M-175.3,385l-1.5,4.8h-1l-0.6-2.1c-0.2-0.5-0.3-1-0.4-1.5l0,0c-0.1,0.5-0.2,1-0.4,1.5l-0.7,2.1h-1l-1.4-4.8
				h1.1l0.5,2.3c0.1,0.5,0.2,1.1,0.3,1.5l0,0c0.1-0.4,0.2-0.9,0.4-1.5l0.7-2.3h0.9l0.7,2.2c0.2,0.5,0.3,1.1,0.4,1.6l0,0
				c0.1-0.5,0.2-1,0.3-1.6l0.6-2.2H-175.3L-175.3,385z"/>
			<path class="st0" d="M-169.8,389.7h-1.1V387c0-0.8-0.3-1.3-1-1.3c-0.3,0-0.6,0.1-0.8,0.3c-0.2,0.2-0.3,0.5-0.3,0.8v2.8h-1.1v-3.4
				c0-0.4,0-0.9,0-1.4h0.9v0.7l0,0c0.1-0.2,0.3-0.4,0.6-0.6c0.3-0.2,0.6-0.3,1-0.3s0.8,0.1,1.1,0.4c0.4,0.4,0.6,0.9,0.6,1.6v3.1
				H-169.8z"/>
			<path class="st0" d="M-166.8,389.7h-1.1v-7h1.1V389.7z"/>
			<path class="st0" d="M-160.5,387.3c0,0.7-0.2,1.3-0.6,1.8s-1,0.7-1.8,0.7c-0.7,0-1.3-0.2-1.7-0.7c-0.4-0.5-0.6-1.1-0.6-1.8
				s0.2-1.3,0.6-1.8s1-0.7,1.7-0.7s1.3,0.2,1.7,0.7C-160.8,386-160.5,386.6-160.5,387.3z M-161.6,387.3c0-0.4-0.1-0.8-0.3-1.1
				c-0.2-0.4-0.5-0.6-1-0.6c-0.4,0-0.8,0.2-1,0.6c-0.2,0.3-0.3,0.7-0.3,1.2c0,0.4,0.1,0.8,0.3,1.1c0.2,0.4,0.6,0.6,1,0.6
				s0.7-0.2,1-0.6C-161.8,388.2-161.6,387.8-161.6,387.3z"/>
			<path class="st0" d="M-155.4,389.7h-1l-0.1-0.6l0,0c-0.3,0.4-0.8,0.7-1.4,0.7c-0.5,0-0.8-0.1-1.1-0.4c-0.2-0.3-0.4-0.6-0.4-1
				c0-0.6,0.2-1,0.7-1.3c0.5-0.3,1.2-0.5,2.1-0.5v-0.1c0-0.6-0.3-0.9-1-0.9c-0.5,0-0.9,0.1-1.2,0.4l-0.2-0.7c0.4-0.3,1-0.4,1.6-0.4
				c1.2,0,1.9,0.7,1.9,2v1.8C-155.4,389.1-155.4,389.5-155.4,389.7z M-156.5,388.1v-0.7c-1.2,0-1.8,0.3-1.8,1c0,0.2,0.1,0.4,0.2,0.6
				s0.3,0.2,0.5,0.2s0.5-0.1,0.7-0.2c0.2-0.1,0.3-0.3,0.4-0.6C-156.5,388.2-156.5,388.2-156.5,388.1z"/>
			<path class="st0" d="M-149.3,389.7h-0.9v-0.8l0,0c-0.3,0.6-0.8,0.9-1.5,0.9c-0.6,0-1.1-0.2-1.4-0.7s-0.6-1-0.6-1.8
				s0.2-1.4,0.6-1.9c0.4-0.4,0.9-0.7,1.5-0.7s1.1,0.2,1.3,0.6l0,0v-2.7h1.1v5.7C-149.3,388.9-149.3,389.3-149.3,389.7z
				 M-150.4,387.7v-0.8c0-0.1,0-0.2,0-0.3c-0.1-0.3-0.2-0.5-0.4-0.6c-0.2-0.2-0.4-0.3-0.7-0.3c-0.4,0-0.7,0.2-0.9,0.5
				c-0.2,0.3-0.3,0.7-0.3,1.2s0.1,0.9,0.3,1.2c0.2,0.3,0.5,0.5,0.9,0.5c0.3,0,0.6-0.1,0.8-0.4C-150.5,388.4-150.4,388.1-150.4,387.7
				z"/>
			<path class="st0" d="M-140.3,387.3c0,0.7-0.2,1.3-0.6,1.8s-1,0.7-1.8,0.7c-0.7,0-1.3-0.2-1.7-0.7c-0.4-0.5-0.6-1.1-0.6-1.8
				s0.2-1.3,0.6-1.8s1-0.7,1.7-0.7s1.3,0.2,1.7,0.7C-140.4,386-140.3,386.6-140.3,387.3z M-141.3,387.3c0-0.4-0.1-0.8-0.3-1.1
				c-0.2-0.4-0.5-0.6-1-0.6c-0.4,0-0.8,0.2-1,0.6c-0.2,0.3-0.3,0.7-0.3,1.2c0,0.4,0.1,0.8,0.3,1.1c0.2,0.4,0.6,0.6,1,0.6
				s0.7-0.2,1-0.6C-141.4,388.2-141.3,387.8-141.3,387.3z"/>
			<path class="st0" d="M-134.5,389.7h-1.1V387c0-0.8-0.3-1.3-1-1.3c-0.3,0-0.6,0.1-0.8,0.3c-0.2,0.2-0.3,0.5-0.3,0.8v2.8h-1.1v-3.4
				c0-0.4,0-0.9,0-1.4h0.9v0.7l0,0c0.1-0.2,0.3-0.4,0.6-0.6c0.3-0.2,0.6-0.3,1-0.3s0.8,0.1,1.1,0.4c0.4,0.4,0.6,0.9,0.6,1.6v3.1
				H-134.5z"/>
			<path class="st0" d="M-127.3,385.8h-1.2v2.3c0,0.6,0.2,0.9,0.6,0.9c0.2,0,0.3,0,0.5,0v0.8c-0.2,0.1-0.5,0.1-0.8,0.1
				c-0.4,0-0.7-0.1-1-0.4c-0.2-0.3-0.4-0.7-0.4-1.3v-2.4h-0.7V385h0.7v-0.9l1-0.3v1.2h1.2L-127.3,385.8L-127.3,385.8z"/>
			<path class="st0" d="M-121.8,389.7h-1.1V387c0-0.9-0.3-1.3-1-1.3c-0.5,0-0.8,0.2-1,0.7c0,0.1,0,0.2,0,0.4v2.9h-1.1v-7h1.1v2.9
				l0,0c0.3-0.5,0.8-0.8,1.4-0.8c0.4,0,0.8,0.1,1.1,0.4c0.4,0.4,0.5,0.9,0.5,1.6C-121.8,386.9-121.8,389.7-121.8,389.7z"/>
			<path class="st0" d="M-115.9,387.1c0,0.2,0,0.4,0,0.5h-3.2c0,0.5,0.2,0.8,0.5,1.1c0.3,0.2,0.6,0.3,1,0.3c0.5,0,0.9-0.1,1.3-0.2
				l0.2,0.7c-0.5,0.2-1,0.3-1.6,0.3c-0.7,0-1.3-0.2-1.7-0.7c-0.4-0.4-0.6-1-0.6-1.8c0-0.7,0.2-1.3,0.6-1.8s1-0.8,1.7-0.8
				s1.2,0.3,1.6,0.8C-116.1,386-115.9,386.5-115.9,387.1z M-116.9,386.8c0-0.3-0.1-0.6-0.2-0.8c-0.2-0.3-0.5-0.4-0.8-0.4
				s-0.6,0.1-0.8,0.4c-0.2,0.2-0.3,0.5-0.3,0.8C-119.1,386.8-116.9,386.8-116.9,386.8z"/>
		</g>
	</g>
</g>
</svg>
