<?xml version="1.0" encoding="utf-8"?>
<!-- Generator: Adobe Illustrator 19.0.0, SVG Export Plug-In . SVG Version: 6.00 Build 0)  -->
<svg version="1.1" id="US_UK_Download_on_the" xmlns="http://www.w3.org/2000/svg" xmlns:xlink="http://www.w3.org/1999/xlink"
	 x="0px" y="0px" viewBox="-238 377 135 38.8" style="enable-background:new -238 377 135 38.8;" xml:space="preserve">
<style type="text/css">
	.st0{clip-path:url(#SVGID_2_);fill:url(#SVGID_3_);}
	.st1{clip-path:url(#SVGID_5_);fill:url(#SVGID_6_);}
	.st2{clip-path:url(#SVGID_8_);fill:url(#SVGID_9_);}
	.st3{clip-path:url(#SVGID_11_);fill:url(#SVGID_12_);}
	.st4{fill:#F9F9F9;}
	.st5{fill:#F9F9FA;}
</style>
<g>
	<path d="M-103,410.6c0,2.9-2.3,5.2-5.2,5.2h-124.5c-2.9,0-5.2-2.3-5.2-5.2v-28.3c0-2.9,2.3-5.2,5.2-5.2h124.5
		c2.9,0,5.2,2.3,5.2,5.2V410.6L-103,410.6z"/>
	<g id="PLAY_2_">
		<g>
			<g>
				<defs>
					<path id="SVGID_1_" d="M-204.1,394.1l-5.3-3.1c0,0-9.7-5.6-10.3-6c-0.6-0.3-1.1-0.1-1.1,0.6c0,1.1,0,12,0,12s0,11.7,0,12.3
						c0,0.5,0.4,0.7,0.9,0.5s10.6-6.1,10.6-6.1l5.3-3.1c0,0,4.5-2.6,5.1-3c0.6-0.4,0.5-0.8,0-1.1
						C-199.4,396.8-204.1,394.1-204.1,394.1z"/>
				</defs>
				<clipPath id="SVGID_2_">
					<use xlink:href="#SVGID_1_"  style="overflow:visible;"/>
				</clipPath>
				
					<linearGradient id="SVGID_3_" gradientUnits="userSpaceOnUse" x1="2794.2385" y1="325.8049" x2="2794.2385" y2="327.994" gradientTransform="matrix(12 0 0 12 -33745.1406 -3525.186)">
					<stop  offset="0" style="stop-color:#257CB0"/>
					<stop  offset="0.2863" style="stop-color:#4A93B5"/>
					<stop  offset="0.767" style="stop-color:#78BCBB"/>
					<stop  offset="1" style="stop-color:#89CFBD"/>
				</linearGradient>
				<polygon class="st0" points="-220.9,384.5 -220.9,397.6 -220.9,410.7 -207.7,397.6 				"/>
			</g>
		</g>
		<g>
			<g>
				<defs>
					<path id="SVGID_4_" d="M-204.1,394.1l-5.3-3.1c0,0-9.7-5.6-10.3-6c-0.6-0.3-1.1-0.1-1.1,0.6c0,1.1,0,12,0,12s0,11.7,0,12.3
						c0,0.5,0.4,0.7,0.9,0.5s10.6-6.1,10.6-6.1l5.3-3.1c0,0,4.5-2.6,5.1-3c0.6-0.4,0.5-0.8,0-1.1
						C-199.4,396.8-204.1,394.1-204.1,394.1z"/>
				</defs>
				<clipPath id="SVGID_5_">
					<use xlink:href="#SVGID_4_"  style="overflow:visible;"/>
				</clipPath>
				
					<linearGradient id="SVGID_6_" gradientUnits="userSpaceOnUse" x1="2793.6865" y1="326.3479" x2="2795.0869" y2="326.3479" gradientTransform="matrix(12 0 0 12 -33745.1406 -3525.186)">
					<stop  offset="0" style="stop-color:#52C1AD"/>
					<stop  offset="1" style="stop-color:#DEE89A"/>
				</linearGradient>
				<polygon class="st1" points="-204.1,394.1 -209.4,391 -220.9,384.4 -220.9,384.5 -207.7,397.6 				"/>
			</g>
		</g>
		<g>
			<g>
				<defs>
					<path id="SVGID_7_" d="M-204.1,394.1l-5.3-3.1c0,0-9.7-5.6-10.3-6c-0.6-0.3-1.1-0.1-1.1,0.6c0,1.1,0,12,0,12s0,11.7,0,12.3
						c0,0.5,0.4,0.7,0.9,0.5s10.6-6.1,10.6-6.1l5.3-3.1c0,0,4.5-2.6,5.1-3c0.6-0.4,0.5-0.8,0-1.1
						C-199.4,396.8-204.1,394.1-204.1,394.1z"/>
				</defs>
				<clipPath id="SVGID_8_">
					<use xlink:href="#SVGID_7_"  style="overflow:visible;"/>
				</clipPath>
				
					<linearGradient id="SVGID_9_" gradientUnits="userSpaceOnUse" x1="2794.3867" y1="326.8992" x2="2794.3867" y2="328.0023" gradientTransform="matrix(12 0 0 12 -33745.1406 -3525.186)">
					<stop  offset="0" style="stop-color:#EC413D"/>
					<stop  offset="0.1668" style="stop-color:#DA4452"/>
					<stop  offset="0.5748" style="stop-color:#B0487A"/>
					<stop  offset="0.8619" style="stop-color:#954A92"/>
					<stop  offset="1" style="stop-color:#8A4A9D"/>
				</linearGradient>
				<polygon class="st2" points="-220.9,410.7 -220.9,410.8 -209.4,404.2 -204.1,401.1 -207.7,397.6 				"/>
			</g>
		</g>
		<g>
			<g>
				<defs>
					<path id="SVGID_10_" d="M-204.1,394.1l-5.3-3.1c0,0-9.7-5.6-10.3-6c-0.6-0.3-1.1-0.1-1.1,0.6c0,1.1,0,12,0,12s0,11.7,0,12.3
						c0,0.5,0.4,0.7,0.9,0.5s10.6-6.1,10.6-6.1l5.3-3.1c0,0,4.5-2.6,5.1-3c0.6-0.4,0.5-0.8,0-1.1
						C-199.4,396.8-204.1,394.1-204.1,394.1z"/>
				</defs>
				<clipPath id="SVGID_11_">
					<use xlink:href="#SVGID_10_"  style="overflow:visible;"/>
				</clipPath>
				
					<linearGradient id="SVGID_12_" gradientUnits="userSpaceOnUse" x1="2795.1934" y1="326.6056" x2="2795.1934" y2="327.1933" gradientTransform="matrix(12 0 0 12 -33745.1406 -3525.186)">
					<stop  offset="0" style="stop-color:#F58879"/>
					<stop  offset="0.1194" style="stop-color:#F69079"/>
					<stop  offset="0.7128" style="stop-color:#FCB877"/>
					<stop  offset="1" style="stop-color:#FEC874"/>
				</linearGradient>
				<polygon class="st3" points="-204.1,394.1 -207.7,397.6 -204.1,401.1 -198,397.6 				"/>
			</g>
		</g>
	</g>
	<path class="st4" d="M-137.5,402.7c-0.5,0-1-0.1-1.4-0.3c-0.4-0.2-0.8-0.5-1-0.8h-0.1c0.1,0.4,0.1,0.9,0.1,1.3v3.1h-1.2V395h0.9
		l0.2,1h0.1c0.3-0.4,0.6-0.7,1-0.9c0.4-0.2,0.8-0.3,1.4-0.3c1,0,1.8,0.3,2.3,1c0.5,0.7,0.8,1.7,0.8,2.9s-0.3,2.2-0.8,2.9
		C-135.7,402.4-136.5,402.7-137.5,402.7z M-137.7,395.8c-0.8,0-1.3,0.2-1.7,0.6c-0.4,0.4-0.5,1.1-0.5,2.1v0.3c0,1.1,0.2,1.8,0.5,2.3
		c0.4,0.5,0.9,0.7,1.7,0.7c0.7,0,1.2-0.3,1.6-0.8c0.4-0.5,0.6-1.3,0.6-2.2c0-1-0.2-1.7-0.6-2.2C-136.5,396.1-137,395.8-137.7,395.8z
		"/>
	<path class="st4" d="M-131.6,402.6h-1.2v-10.9h1.2V402.6z"/>
	<path class="st4" d="M-125,402.6l-0.2-1.1h-0.1c-0.4,0.5-0.8,0.8-1.1,1c-0.4,0.2-0.9,0.3-1.4,0.3c-0.8,0-1.4-0.2-1.8-0.6
		c-0.4-0.4-0.6-0.9-0.6-1.7c0-1.5,1.2-2.4,3.7-2.4l1.3,0v-0.5c0-0.6-0.1-1-0.4-1.3c-0.3-0.3-0.7-0.4-1.2-0.4c-0.6,0-1.4,0.2-2.2,0.6
		l-0.4-0.9c0.4-0.2,0.8-0.4,1.2-0.5c0.4-0.1,0.9-0.2,1.3-0.2c0.9,0,1.6,0.2,2,0.6c0.4,0.4,0.7,1.1,0.7,1.9v5.2L-125,402.6
		L-125,402.6z M-127.6,401.8c0.7,0,1.3-0.2,1.7-0.6c0.4-0.4,0.6-1,0.6-1.7v-0.7l-1.2,0c-0.9,0-1.6,0.2-2,0.4
		c-0.4,0.3-0.6,0.6-0.6,1.2c0,0.4,0.1,0.7,0.4,1C-128.4,401.7-128.1,401.8-127.6,401.8z"/>
	<path class="st4" d="M-123.5,395h1.2l1.7,4.4c0.4,1,0.6,1.7,0.7,2.2h0.1c0.1-0.2,0.2-0.6,0.4-1.2c0.2-0.6,0.8-2.3,1.9-5.3h1.2
		l-3.3,8.7c-0.3,0.9-0.7,1.5-1.1,1.8c-0.4,0.4-1,0.5-1.6,0.5c-0.4,0-0.7,0-1-0.1V405c0.3,0.1,0.5,0.1,0.9,0.1c0.8,0,1.4-0.4,1.7-1.3
		l0.4-1.1L-123.5,395z"/>
	<path class="st4" d="M-158.9,395.7c0.4,0.3,1.1,0.9,1.1,2.2c0,1.2-0.7,1.7-1.3,2.3c-0.2,0.2-0.4,0.4-0.4,0.8c0,0.4,0.2,0.5,0.4,0.7
		l0.6,0.4c0.7,0.6,1.3,1.1,1.3,2.2c0,1.5-1.5,3-4.2,3c-2.3,0-3.4-1.1-3.4-2.3c0-0.6,0.3-1.4,1.2-1.9c1-0.6,2.3-0.7,3.1-0.7
		c-0.2-0.3-0.5-0.6-0.5-1.1c0-0.3,0.1-0.4,0.2-0.6c-0.2,0-0.4,0-0.5,0c-1.7,0-2.7-1.3-2.7-2.5c0-0.7,0.3-1.6,1-2.1
		c0.9-0.8,2-0.9,2.9-0.9h3.3l-1,0.6L-158.9,395.7L-158.9,395.7z M-160.1,402.8c-0.1,0-0.2,0-0.4,0c-0.1,0-1,0-1.7,0.3
		c-0.4,0.1-1.4,0.5-1.4,1.6c0,1.1,1.1,1.9,2.8,1.9c1.5,0,2.4-0.7,2.4-1.7C-158.3,404.1-158.9,403.6-160.1,402.8z M-159.6,399.7
		c0.4-0.4,0.4-0.9,0.4-1.2c0-1.1-0.7-2.9-2-2.9c-0.4,0-0.9,0.2-1.1,0.5c-0.3,0.3-0.4,0.8-0.4,1.2c0,1.1,0.6,2.8,2,2.8
		C-160.3,400.2-159.9,400-159.6,399.7z"/>
	<path class="st4" d="M-169,402.5c-2.5,0-3.9-2-3.9-3.8c0-2.1,1.7-3.9,4.1-3.9c2.3,0,3.8,1.8,3.8,3.8
		C-164.9,400.5-166.4,402.5-169,402.5z M-167,401.2c0.4-0.5,0.5-1.1,0.5-1.8c0-1.4-0.7-4.1-2.6-4.1c-0.5,0-1.1,0.2-1.4,0.5
		c-0.6,0.6-0.7,1.3-0.7,1.9c0,1.6,0.8,4.2,2.7,4.2C-168,402-167.4,401.7-167,401.2z"/>
	<path class="st4" d="M-177.6,402.5c-2.5,0-3.9-2-3.9-3.8c0-2.1,1.7-3.9,4.1-3.9c2.3,0,3.8,1.8,3.8,3.8
		C-173.6,400.5-175,402.5-177.6,402.5z M-175.7,401.2c0.4-0.5,0.5-1.1,0.5-1.8c0-1.4-0.7-4.1-2.6-4.1c-0.5,0-1.1,0.2-1.4,0.5
		c-0.6,0.6-0.7,1.3-0.7,1.9c0,1.6,0.8,4.2,2.7,4.2C-176.7,402-176,401.7-175.7,401.2z"/>
	<path class="st4" d="M-182.8,402.3l-2.3,0.5c-0.9,0.1-1.8,0.3-2.6,0.3c-4.4,0-6.1-3.3-6.1-5.8c0-3.1,2.4-6,6.5-6
		c0.9,0,1.7,0.1,2.5,0.3c1.2,0.3,1.8,0.8,2.1,1l-1.3,1.3l-0.6,0.1l0.4-0.6c-0.5-0.5-1.5-1.5-3.4-1.5c-2.5,0-4.4,1.9-4.4,4.7
		c0,3,2.2,5.9,5.7,5.9c1,0,1.6-0.2,2-0.4v-2.6l-2.4,0.1l1.3-0.7h3.4l-0.4,0.4c-0.1,0.1-0.1,0.1-0.2,0.3c0,0.1,0,0.6,0,0.8
		L-182.8,402.3L-182.8,402.3z"/>
	<path class="st4" d="M-153.9,401.8c-0.5,0-0.6-0.1-0.6-0.8v-0.2V392c0,0,0-0.1,0-0.1c0.1-0.6,0.2-0.7,0.7-0.9h-2.3l-1.2,0.6h1.2v0
		v0v9.4v0.5c0,0.3-0.1,0.4-0.4,0.9h2.8l0.6-0.4C-153.3,401.9-153.6,401.8-153.9,401.8z"/>
	<path class="st4" d="M-147.3,402c-0.2,0.1-0.4,0.2-0.5,0.3c-0.5,0.2-1.1,0.3-1.5,0.3c-0.5,0-1.3,0-2.1-0.6
		c-1.1-0.8-1.6-2.2-1.6-3.4c0-2.5,2-3.7,3.6-3.7c0.6,0,1.2,0.1,1.6,0.4c0.8,0.5,1,1.2,1.1,1.6l-3.7,1.5l-1.2,0.1
		c0.4,2,1.8,3.2,3.3,3.2c0.8,0,1.4-0.3,1.9-0.6L-147.3,402z M-148.8,397.2c0.3-0.1,0.5-0.2,0.5-0.4c0-0.6-0.7-1.4-1.6-1.4
		c-0.6,0-1.8,0.5-1.8,2.2c0,0.3,0,0.6,0,0.8L-148.8,397.2z"/>
	<path class="st4" d="M-145.8,395v1.1h-0.1V395h-0.4v-0.1h0.8v0.1H-145.8z"/>
	<path class="st4" d="M-144.4,396V395h0l-0.3,1.1h-0.1l-0.3-1.1h0v1.1h-0.1v-1.2h0.2l0.3,0.9h0l0.3-0.9h0.2v1.2H-144.4z"/>
	<path class="st5" d="M-190.6,388.1h-0.8c0-0.1-0.1-0.4-0.2-0.9h-1.1c-0.2,0.5-0.2,0.8-0.2,0.9h-0.8c0-0.1,0.2-0.6,0.6-1.6
		s0.6-1.5,0.6-1.7h0.9c0,0.1,0.2,0.6,0.5,1.6C-190.8,387.5-190.6,388-190.6,388.1z M-191.8,386.7c-0.3-0.9-0.4-1.3-0.4-1.4h0
		c0,0.1-0.1,0.5-0.4,1.4H-191.8z"/>
	<path class="st5" d="M-187.4,388.1h-0.6c0-0.1-0.2-0.4-0.7-1.1c-0.5-0.7-0.8-1.2-0.8-1.4h0c0,0.4,0.1,0.7,0.1,1c0,0.4,0,0.9,0,1.5
		h-0.6c0-0.5,0-1.1,0-1.7c0-0.6,0-1.1,0-1.5h0.7c0,0.1,0.2,0.4,0.6,1.1c0.4,0.7,0.7,1.1,0.8,1.3h0c0-0.4-0.1-0.7-0.1-1
		c0-0.4,0-0.9,0-1.4h0.6c0,0.4,0,0.9,0,1.5C-187.4,387.1-187.4,387.6-187.4,388.1z"/>
	<path class="st5" d="M-183.8,386.4c0,0.5-0.2,0.9-0.5,1.2c-0.3,0.4-0.7,0.5-1.3,0.5c-0.2,0-0.6,0-1,0c0-0.5,0-1.1,0-1.7
		c0-0.6,0-1.1,0-1.5h0.4c0.1,0,0.2,0,0.3,0c0.1,0,0.2,0,0.3,0c0.6,0,1,0.2,1.3,0.4C-183.9,385.6-183.8,386-183.8,386.4z
		 M-184.5,386.5c0-0.3-0.1-0.6-0.3-0.8s-0.5-0.3-0.9-0.3c-0.1,0-0.2,0-0.3,0c0,0.3,0,0.7,0,1c0,0.4,0,0.8,0,1.2c0.1,0,0.2,0,0.3,0
		c0.4,0,0.6-0.1,0.8-0.3S-184.5,386.8-184.5,386.5z"/>
	<path class="st5" d="M-180.5,388.1h-0.7c-0.2-0.6-0.3-1-0.4-1.1s-0.3-0.2-0.5-0.2c-0.1,0-0.2,0-0.3,0c0,0.4,0,0.9,0,1.3h-0.7
		c0-0.5,0-1.1,0-1.7c0-0.6,0-1.1,0-1.5h0.4c0.1,0,0.2,0,0.3,0c0.2,0,0.3,0,0.4,0c0.8,0,1.1,0.3,1.1,0.8c0,0.4-0.2,0.7-0.7,0.9v0
		c0.2,0,0.3,0.2,0.4,0.4C-180.9,387.2-180.7,387.6-180.5,388.1z M-181.4,385.8c0-0.3-0.2-0.5-0.6-0.5c-0.2,0-0.3,0-0.4,0
		c0,0.3,0,0.6,0,1c0.1,0,0.2,0,0.2,0C-181.7,386.4-181.4,386.2-181.4,385.8z"/>
	<path class="st5" d="M-176.9,386.5c0,0.5-0.2,0.9-0.5,1.3c-0.3,0.3-0.7,0.5-1.2,0.5c-0.4,0-0.8-0.2-1.1-0.5
		c-0.3-0.3-0.4-0.7-0.4-1.2c0-0.5,0.2-0.9,0.5-1.3c0.3-0.3,0.7-0.5,1.2-0.5c0.4,0,0.8,0.2,1.1,0.5C-177,385.6-176.9,386-176.9,386.5
		z M-177.6,386.5c0-0.4-0.1-0.6-0.3-0.8c-0.2-0.2-0.4-0.3-0.7-0.3c-0.2,0-0.4,0.1-0.6,0.3c-0.2,0.2-0.3,0.5-0.3,0.8
		c0,0.3,0.1,0.6,0.3,0.8c0.2,0.2,0.4,0.3,0.7,0.3c0.2,0,0.4-0.1,0.6-0.3C-177.7,387.1-177.6,386.9-177.6,386.5z"/>
	<path class="st5" d="M-175.5,388.1h-0.7c0-0.5,0-1.1,0-1.7c0-0.6,0-1.1,0-1.5h0.7c0,0.4,0,0.9,0,1.5
		C-175.5,387.1-175.5,387.6-175.5,388.1z"/>
	<path class="st5" d="M-171.9,386.4c0,0.5-0.2,0.9-0.5,1.2c-0.3,0.4-0.7,0.5-1.3,0.5c-0.2,0-0.6,0-1,0c0-0.5,0-1.1,0-1.7
		c0-0.6,0-1.1,0-1.5h0.4c0.1,0,0.2,0,0.3,0c0.1,0,0.2,0,0.3,0c0.6,0,1,0.2,1.3,0.4C-172,385.6-171.9,386-171.9,386.4z M-172.6,386.5
		c0-0.3-0.1-0.6-0.3-0.8s-0.5-0.3-0.9-0.3c-0.1,0-0.2,0-0.3,0c0,0.3,0,0.7,0,1c0,0.4,0,0.8,0,1.2c0.1,0,0.2,0,0.3,0
		c0.4,0,0.6-0.1,0.8-0.3S-172.6,386.8-172.6,386.5z"/>
	<path class="st5" d="M-167.1,388.1h-0.8c0-0.1-0.1-0.4-0.2-0.9h-1.1c-0.2,0.5-0.2,0.8-0.2,0.9h-0.7c0-0.1,0.2-0.6,0.6-1.6
		s0.6-1.5,0.6-1.7h0.9c0,0.1,0.2,0.6,0.5,1.6C-167.3,387.5-167.1,388-167.1,388.1z M-168.2,386.7c-0.3-0.9-0.4-1.3-0.4-1.4h0
		c0,0.1-0.1,0.5-0.4,1.4H-168.2z"/>
	<path class="st5" d="M-164.2,385.7c0,0.4-0.1,0.7-0.4,0.9c-0.3,0.2-0.7,0.3-1.1,0.3c-0.1,0-0.1,0-0.2,0c0,0.3,0,0.7,0,1.2h-0.7
		c0-0.5,0-1,0-1.7c0-0.6,0-1.1,0-1.5h0.4c0.1,0,0.2,0,0.4,0c0.2,0,0.3,0,0.5,0c0.3,0,0.6,0.1,0.8,0.2
		C-164.3,385.2-164.2,385.5-164.2,385.7z M-164.8,385.9c0-0.4-0.2-0.5-0.7-0.5c-0.1,0-0.2,0-0.4,0c0,0.3,0,0.7,0,1.1
		c0,0,0.1,0,0.1,0C-165.1,386.5-164.8,386.3-164.8,385.9z"/>
	<path class="st5" d="M-161.2,385.7c0,0.4-0.1,0.7-0.4,0.9c-0.3,0.2-0.7,0.3-1.1,0.3c-0.1,0-0.1,0-0.2,0c0,0.3,0,0.7,0,1.2h-0.7
		c0-0.5,0-1,0-1.7c0-0.6,0-1.1,0-1.5h0.4c0.1,0,0.2,0,0.4,0c0.2,0,0.3,0,0.5,0c0.3,0,0.6,0.1,0.8,0.2
		C-161.3,385.2-161.2,385.5-161.2,385.7z M-161.8,385.9c0-0.4-0.2-0.5-0.7-0.5c-0.1,0-0.2,0-0.4,0c0,0.3,0,0.7,0,1.1
		c0,0,0.1,0,0.1,0C-162.1,386.5-161.8,386.3-161.8,385.9z"/>
	<path class="st5" d="M-156.3,386.5c0,0.5-0.2,0.9-0.5,1.3c-0.3,0.3-0.7,0.5-1.2,0.5c-0.4,0-0.8-0.2-1.1-0.5
		c-0.3-0.3-0.4-0.7-0.4-1.2c0-0.5,0.2-0.9,0.5-1.3c0.3-0.3,0.7-0.5,1.2-0.5c0.4,0,0.8,0.2,1.1,0.5
		C-156.5,385.6-156.3,386-156.3,386.5z M-157,386.5c0-0.4-0.1-0.6-0.3-0.8c-0.2-0.2-0.4-0.3-0.7-0.3c-0.2,0-0.4,0.1-0.6,0.3
		c-0.2,0.2-0.3,0.5-0.3,0.8c0,0.3,0.1,0.6,0.3,0.8c0.2,0.2,0.4,0.3,0.7,0.3c0.2,0,0.4-0.1,0.6-0.3C-157.1,387.1-157,386.9-157,386.5
		z"/>
	<path class="st5" d="M-152.9,388.1h-0.6c0-0.1-0.2-0.4-0.7-1.1c-0.5-0.7-0.8-1.2-0.8-1.4h0c0,0.4,0.1,0.7,0.1,1c0,0.4,0,0.9,0,1.5
		h-0.6c0-0.5,0-1.1,0-1.7c0-0.6,0-1.1,0-1.5h0.7c0,0.1,0.2,0.4,0.6,1.1c0.4,0.7,0.7,1.1,0.8,1.3h0c0-0.4-0.1-0.7-0.1-1
		c0-0.4,0-0.9,0-1.4h0.6c0,0.4,0,0.9,0,1.5C-153,387.1-153,387.6-152.9,388.1z"/>
</g>
</svg>
